<svg xmlns="http://www.w3.org/2000/svg" viewBox="0 0 32 32" width="32" height="32">
  <rect width="32" height="32" fill="#212529" rx="4"/>
  <path d="M8 18c0-2.5 1.5-4.5 4-5.5 1-.5 2-.8 3.2-.9.3-.1.6-.1.8-.1.5 0 1 .1 1.5.3 1.5.5 2.8 1.5 3.8 2.8.5.6.8 1.3 1 2 .1.3.1.6.1.9 0 .8-.2 1.5-.5 2.2-.3.7-.8 1.3-1.4 1.8-.6.5-1.3.9-2.1 1.1-.4.1-.8.2-1.2.2-.3 0-.6 0-.9-.1-1.2-.2-2.3-.8-3.1-1.6-.8-.8-1.4-1.9-1.6-3-.1-.4-.1-.8-.1-1.1z" fill="#ffffff"/>
  <circle cx="18" cy="16" r="1.5" fill="#212529"/>
  <path d="M12 14c.5-.3 1-.5 1.5-.6.3-.1.6-.1.9 0 .2 0 .4.1.5.2.2.1.3.3.3.5s-.1.4-.3.5c-.2.1-.4.2-.6.2-.3.1-.6.1-.9.1-.3 0-.6-.1-.9-.2-.2-.1-.4-.2-.5-.4-.1-.2-.1-.4 0-.6.1-.1.2-.2.4-.2.2 0 .4 0 .6.1z" fill="#ffc107"/>
</svg>